<svg xmlns="http://www.w3.org/2000/svg" width="680" height="420" viewBox="0 0 680 420"><title>Call payoff at expiry (K=100)</title><text x="340.000" y="25.000" text-anchor="middle">Call payoff at expiry (K=100)</text><rect x="40.000" y="40.000" width="600.000" height="340.000" fill="none" stroke="#888888"/><line x1="40.000" y1="380.000" x2="640.000" y2="380.000" stroke="#888888"/><line x1="40.000" y1="40.000" x2="40.000" y2="380.000" stroke="#888888"/><polyline fill="none" stroke="#2563eb" points="40.000,380.000 44.724,380.000 49.449,380.000 54.173,380.000 58.898,380.000 63.622,380.000 68.346,380.000 73.071,380.000 77.795,380.000 82.520,380.000 87.244,380.000 91.969,380.000 96.693,380.000 101.417,380.000 106.142,380.000 110.866,380.000 115.591,380.000 120.315,380.000 125.039,380.000 129.764,380.000 134.488,380.000 139.213,380.000 143.937,380.000 148.661,380.000 153.386,380.000 158.110,380.000 162.835,380.000 167.559,380.000 172.283,380.000 177.008,380.000 181.732,380.000 186.457,380.000 191.181,380.000 195.906,380.000 200.630,380.000 205.354,380.000 210.079,380.000 214.803,380.000 219.528,380.000 224.252,380.000 228.976,380.000 233.701,380.000 238.425,380.000 243.150,380.000 247.874,380.000 252.598,380.000 257.323,380.000 262.047,380.000 266.772,380.000 271.496,380.000 276.220,380.000 280.945,380.000 285.669,380.000 290.394,380.000 295.118,380.000 299.843,380.000 304.567,380.000 309.291,380.000 314.016,380.000 318.740,380.000 323.465,380.000 328.189,380.000 332.913,380.000 337.638,380.000 342.362,377.323 347.087,371.969 351.811,366.614 356.535,361.260 361.260,355.906 365.984,350.551 370.709,345.197 375.433,339.843 380.157,334.488 384.882,329.134 389.606,323.780 394.331,318.425 399.055,313.071 403.780,307.717 408.504,302.362 413.228,297.008 417.953,291.654 422.677,286.299 427.402,280.945 432.126,275.591 436.850,270.236 441.575,264.882 446.299,259.528 451.024,254.173 455.748,248.819 460.472,243.465 465.197,238.110 469.921,232.756 474.646,227.402 479.370,222.047 484.094,216.693 488.819,211.339 493.543,205.984 498.268,200.630 502.992,195.276 507.717,189.921 512.441,184.567 517.165,179.213 521.890,173.858 526.614,168.504 531.339,163.150 536.063,157.795 540.787,152.441 545.512,147.087 550.236,141.732 554.961,136.378 559.685,131.024 564.409,125.669 569.134,120.315 573.858,114.961 578.583,109.606 583.307,104.252 588.031,98.898 592.756,93.543 597.480,88.189 602.205,82.835 606.929,77.480 611.654,72.126 616.378,66.772 621.102,61.417 625.827,56.063 630.551,50.709 635.276,45.354 640.000,40.000"/></svg>