<svg xmlns="http://www.w3.org/2000/svg" width="680" height="420" viewBox="0 0 680 420"><title>Black-Scholes price vs spot</title><text x="340.000" y="25.000" text-anchor="middle">Black-Scholes price vs spot</text><rect x="40.000" y="40.000" width="600.000" height="340.000" fill="none" stroke="#888888"/><line x1="40.000" y1="380.000" x2="640.000" y2="380.000" stroke="#888888"/><line x1="40.000" y1="40.000" x2="40.000" y2="380.000" stroke="#888888"/><polyline fill="none" stroke="#059669" points="40.000,380.000 44.724,379.995 49.449,379.988 54.173,379.980 58.898,379.969 63.622,379.956 68.346,379.939 73.071,379.918 77.795,379.892 82.520,379.861 87.244,379.823 91.969,379.777 96.693,379.722 101.417,379.658 106.142,379.581 110.866,379.491 115.591,379.386 120.315,379.265 125.039,379.124 129.764,378.963 134.488,378.779 139.213,378.569 143.937,378.332 148.661,378.065 153.386,377.765 158.110,377.429 162.835,377.055 167.559,376.641 172.283,376.183 177.008,375.679 181.732,375.126 186.457,374.521 191.181,373.862 195.906,373.146 200.630,372.370 205.354,371.532 210.079,370.629 214.803,369.660 219.528,368.621 224.252,367.512 228.976,366.329 233.701,365.071 238.425,363.737 243.150,362.326 247.874,360.834 252.598,359.263 257.323,357.610 262.047,355.875 266.772,354.057 271.496,352.156 276.220,350.171 280.945,348.103 285.669,345.951 290.394,343.716 295.118,341.397 299.843,338.996 304.567,336.513 309.291,333.948 314.016,331.304 318.740,328.580 323.465,325.778 328.189,322.899 332.913,319.944 337.638,316.915 342.362,313.814 347.087,310.641 351.811,307.399 356.535,304.088 361.260,300.712 365.984,297.271 370.709,293.768 375.433,290.204 380.157,286.581 384.882,282.901 389.606,279.165 394.331,275.376 399.055,271.536 403.780,267.645 408.504,263.707 413.228,259.723 417.953,255.694 422.677,251.622 427.402,247.510 432.126,243.358 436.850,239.168 441.575,234.943 446.299,230.683 451.024,226.390 455.748,222.065 460.472,217.711 465.197,213.328 469.921,208.917 474.646,204.481 479.370,200.020 484.094,195.536 488.819,191.029 493.543,186.501 498.268,181.953 502.992,177.385 507.717,172.800 512.441,168.198 517.165,163.579 521.890,158.946 526.614,154.297 531.339,149.635 536.063,144.961 540.787,140.274 545.512,135.575 550.236,130.866 554.961,126.146 559.685,121.417 564.409,116.679 569.134,111.932 573.858,107.178 578.583,102.416 583.307,97.646 588.031,92.871 592.756,88.088 597.480,83.301 602.205,78.507 606.929,73.709 611.654,68.905 616.378,64.097 621.102,59.285 625.827,54.469 630.551,49.650 635.276,44.826 640.000,40.000"/></svg>