<svg xmlns="http://www.w3.org/2000/svg" width="680" height="420" viewBox="0 0 680 420"><title>Long straddle P&amp;L at expiry</title><text x="340.000" y="25.000" text-anchor="middle">Long straddle P&amp;L at expiry</text><rect x="40.000" y="40.000" width="600.000" height="340.000" fill="none" stroke="#888888"/><line x1="40.000" y1="380.000" x2="640.000" y2="380.000" stroke="#888888"/><line x1="40.000" y1="40.000" x2="40.000" y2="380.000" stroke="#888888"/><polyline fill="none" stroke="#dc2626" points="40.000,40.000 44.724,45.397 49.449,50.794 54.173,56.190 58.898,61.587 63.622,66.984 68.346,72.381 73.071,77.778 77.795,83.175 82.520,88.571 87.244,93.968 91.969,99.365 96.693,104.762 101.417,110.159 106.142,115.556 110.866,120.952 115.591,126.349 120.315,131.746 125.039,137.143 129.764,142.540 134.488,147.937 139.213,153.333 143.937,158.730 148.661,164.127 153.386,169.524 158.110,174.921 162.835,180.317 167.559,185.714 172.283,191.111 177.008,196.508 181.732,201.905 186.457,207.302 191.181,212.698 195.906,218.095 200.630,223.492 205.354,228.889 210.079,234.286 214.803,239.683 219.528,245.079 224.252,250.476 228.976,255.873 233.701,261.270 238.425,266.667 243.150,272.063 247.874,277.460 252.598,282.857 257.323,288.254 262.047,293.651 266.772,299.048 271.496,304.444 276.220,309.841 280.945,315.238 285.669,320.635 290.394,326.032 295.118,331.429 299.843,336.825 304.567,342.222 309.291,347.619 314.016,353.016 318.740,358.413 323.465,363.810 328.189,369.206 332.913,374.603 337.638,380.000 342.362,380.000 347.087,374.603 351.811,369.206 356.535,363.810 361.260,358.413 365.984,353.016 370.709,347.619 375.433,342.222 380.157,336.825 384.882,331.429 389.606,326.032 394.331,320.635 399.055,315.238 403.780,309.841 408.504,304.444 413.228,299.048 417.953,293.651 422.677,288.254 427.402,282.857 432.126,277.460 436.850,272.063 441.575,266.667 446.299,261.270 451.024,255.873 455.748,250.476 460.472,245.079 465.197,239.683 469.921,234.286 474.646,228.889 479.370,223.492 484.094,218.095 488.819,212.698 493.543,207.302 498.268,201.905 502.992,196.508 507.717,191.111 512.441,185.714 517.165,180.317 521.890,174.921 526.614,169.524 531.339,164.127 536.063,158.730 540.787,153.333 545.512,147.937 550.236,142.540 554.961,137.143 559.685,131.746 564.409,126.349 569.134,120.952 573.858,115.556 578.583,110.159 583.307,104.762 588.031,99.365 592.756,93.968 597.480,88.571 602.205,83.175 606.929,77.778 611.654,72.381 616.378,66.984 621.102,61.587 625.827,56.190 630.551,50.794 635.276,45.397 640.000,40.000"/></svg>