<svg xmlns="http://www.w3.org/2000/svg" width="680" height="420" viewBox="0 0 680 420"><title>Risk-neutral terminal density of S_T</title><text x="340.000" y="25.000" text-anchor="middle">Risk-neutral terminal density of S_T</text><rect x="40.000" y="40.000" width="600.000" height="340.000" fill="none" stroke="#888888"/><line x1="40.000" y1="380.000" x2="640.000" y2="380.000" stroke="#888888"/><line x1="40.000" y1="40.000" x2="40.000" y2="380.000" stroke="#888888"/><polyline fill="none" stroke="#7c3aed" points="40.000,380.000 43.015,379.993 46.030,379.984 49.045,379.969 52.060,379.949 55.075,379.920 58.090,379.879 61.106,379.824 64.121,379.749 67.136,379.650 70.151,379.519 73.166,379.349 76.181,379.130 79.196,378.852 82.211,378.503 85.226,378.068 88.241,377.532 91.256,376.879 94.271,376.089 97.286,375.142 100.302,374.017 103.317,372.692 106.332,371.143 109.347,369.346 112.362,367.277 115.377,364.912 118.392,362.227 121.407,359.201 124.422,355.811 127.437,352.039 130.452,347.867 133.467,343.280 136.482,338.266 139.497,332.818 142.513,326.931 145.528,320.603 148.543,313.839 151.558,306.644 154.573,299.031 157.588,291.017 160.603,282.620 163.618,273.865 166.633,264.781 169.648,255.400 172.663,245.756 175.678,235.889 178.693,225.840 181.709,215.651 184.724,205.370 187.739,195.042 190.754,184.715 193.769,174.438 196.784,164.260 199.799,154.227 202.814,144.388 205.829,134.789 208.844,125.473 211.859,116.482 214.874,107.858 217.889,99.636 220.905,91.852 223.920,84.536 226.935,77.717 229.950,71.419 232.965,65.663 235.980,60.467 238.995,55.845 242.010,51.807 245.025,48.360 248.040,45.507 251.055,43.249 254.070,41.583 257.085,40.503 260.101,40.000 263.116,40.062 266.131,40.677 269.146,41.826 272.161,43.493 275.176,45.658 278.191,48.298 281.206,51.392 284.221,54.914 287.236,58.841 290.251,63.146 293.266,67.803 296.281,72.786 299.296,78.067 302.312,83.622 305.327,89.422 308.342,95.441 311.357,101.654 314.372,108.036 317.387,114.562 320.402,121.209 323.417,127.952 326.432,134.771 329.447,141.644 332.462,148.551 335.477,155.473 338.492,162.391 341.508,169.290 344.523,176.153 347.538,182.965 350.553,189.713 353.568,196.385 356.583,202.968 359.598,209.453 362.613,215.830 365.628,222.090 368.643,228.226 371.658,234.232 374.673,240.102 377.688,245.830 380.704,251.414 383.719,256.849 386.734,262.133 389.749,267.263 392.764,272.240 395.779,277.061 398.794,281.727 401.809,286.238 404.824,290.594 407.839,294.798 410.854,298.849 413.869,302.751 416.884,306.505 419.899,310.114 422.915,313.581 425.930,316.908 428.945,320.098 431.960,323.155 434.975,326.081 437.990,328.882 441.005,331.559 444.020,334.117 447.035,336.559 450.050,338.889 453.065,341.111 456.080,343.228 459.095,345.244 462.111,347.163 465.126,348.988 468.141,350.723 471.156,352.372 474.171,353.937 477.186,355.423 480.201,356.832 483.216,358.168 486.231,359.435 489.246,360.634 492.261,361.770 495.276,362.844 498.291,363.860 501.307,364.821 504.322,365.729 507.337,366.587 510.352,367.397 513.367,368.162 516.382,368.883 519.397,369.563 522.412,370.205 525.427,370.809 528.442,371.378 531.457,371.915 534.472,372.420 537.487,372.895 540.503,373.342 543.518,373.762 546.533,374.157 549.548,374.529 552.563,374.878 555.578,375.206 558.593,375.514 561.608,375.803 564.623,376.074 567.638,376.329 570.653,376.567 573.668,376.791 576.683,377.001 579.698,377.198 582.714,377.382 585.729,377.555 588.744,377.717 591.759,377.869 594.774,378.010 597.789,378.143 600.804,378.267 603.819,378.384 606.834,378.492 609.849,378.594 612.864,378.689 615.879,378.778 618.894,378.861 621.910,378.939 624.925,379.011 627.940,379.079 630.955,379.142 633.970,379.201 636.985,379.256 640.000,379.308"/></svg>